{"asset":{"version":"2.0","generator":"Blockbench 5.0.5 glTF exporter"},"scenes":[{"nodes":[11],"name":"blockbench_export"}],"scene":0,"nodes":[{"translation":[-0.125,0,0],"name":"MainLimb","mesh":0},{"rotation":[0,0,0.42261826174069944,0.9063077870366499],"translation":[-0.15055200330034482,0.6797964479104726,0],"name":"TopLimb","mesh":1},{"rotation":[0,0,0.9396926207859083,0.3420201433256688],"translation":[-0.15055200330034482,-0.6952035520895274,0],"name":"BottomLimb","mesh":2},{"translation":[-0.125,-0.25,0],"name":"Grip","mesh":3},{"translation":[0.125,0,0],"name":"Limb","children":[0,1,2,3]},{"translation":[-0.125,-0.25,0],"name":"cuboid","mesh":4},{"rotation":[0,0,0.3826834323650898,0.9238795325112867],"translation":[0.5625,0,0],"name":"cuboid","mesh":5},{"rotation":[0,0,0.3826834323650898,0.9238795325112867],"translation":[-1,0,0],"name":"cuboid","mesh":6},{"rotation":[0,0.043619387365336,0,0.9990482215818578],"translation":[0.5625,0,-0.125],"name":"Arrow","children":[5,6,7]},{"name":"String","mesh":7},{"translation":[-0.40625,0,0],"name":"String","children":[9]},{"translation":[-0.125,0,0],"name":"Bow","children":[4,8,10]}],"bufferViews":[{"buffer":0,"byteOffset":0,"byteLength":864,"target":34962,"byteStride":12},{"buffer":0,"byteOffset":864,"byteLength":864,"target":34962,"byteStride":12},{"buffer":0,"byteOffset":1728,"byteLength":576,"target":34962,"byteStride":8},{"buffer":0,"byteOffset":2304,"byteLength":216,"target":34963},{"buffer":0,"byteOffset":2520,"byteLength":288,"target":34962,"byteStride":12},{"buffer":0,"byteOffset":2808,"byteLength":288,"target":34962,"byteStride":12},{"buffer":0,"byteOffset":3096,"byteLength":192,"target":34962,"byteStride":8},{"buffer":0,"byteOffset":3288,"byteLength":72,"target":34963},{"buffer":0,"byteOffset":3360,"byteLength":288,"target":34962,"byteStride":12},{"buffer":0,"byteOffset":3648,"byteLength":288,"target":34962,"byteStride":12},{"buffer":0,"byteOffset":3936,"byteLength":192,"target":34962,"byteStride":8},{"buffer":0,"byteOffset":4128,"byteLength":72,"target":34963},{"buffer":0,"byteOffset":4200,"byteLength":288,"target":34962,"byteStride":12},{"buffer":0,"byteOffset":4488,"byteLength":288,"target":34962,"byteStride":12},{"buffer":0,"byteOffset":4776,"byteLength":192,"target":34962,"byteStride":8},{"buffer":0,"byteOffset":4968,"byteLength":72,"target":34963},{"buffer":0,"byteOffset":5040,"byteLength":288,"target":34962,"byteStride":12},{"buffer":0,"byteOffset":5328,"byteLength":288,"target":34962,"byteStride":12},{"buffer":0,"byteOffset":5616,"byteLength":192,"target":34962,"byteStride":8},{"buffer":0,"byteOffset":5808,"byteLength":72,"target":34963},{"buffer":0,"byteOffset":5880,"byteLength":672,"target":34962,"byteStride":12},{"buffer":0,"byteOffset":6552,"byteLength":672,"target":34962,"byteStride":12},{"buffer":0,"byteOffset":7224,"byteLength":448,"target":34962,"byteStride":8},{"buffer":0,"byteOffset":7672,"byteLength":168,"target":34963},{"buffer":0,"byteOffset":7840,"byteLength":672,"target":34962,"byteStride":12},{"buffer":0,"byteOffset":8512,"byteLength":672,"target":34962,"byteStride":12},{"buffer":0,"byteOffset":9184,"byteLength":448,"target":34962,"byteStride":8},{"buffer":0,"byteOffset":9632,"byteLength":168,"target":34963},{"buffer":0,"byteOffset":9800,"byteLength":288,"target":34962,"byteStride":12},{"buffer":0,"byteOffset":10088,"byteLength":288,"target":34962,"byteStride":12},{"buffer":0,"byteOffset":10376,"byteLength":192,"target":34962,"byteStride":8},{"buffer":0,"byteOffset":10568,"byteLength":72,"target":34963},{"buffer":0,"byteOffset":10640,"byteLength":4},{"buffer":0,"byteOffset":10644,"byteLength":16},{"buffer":0,"byteOffset":10660,"byteLength":4},{"buffer":0,"byteOffset":10664,"byteLength":12},{"buffer":0,"byteOffset":10676,"byteLength":36},{"buffer":0,"byteOffset":10712,"byteLength":108},{"buffer":0,"byteOffset":10820,"byteLength":36},{"buffer":0,"byteOffset":10856,"byteLength":108},{"buffer":0,"byteOffset":10964,"byteLength":36},{"buffer":0,"byteOffset":11000,"byteLength":108},{"buffer":0,"byteOffset":11108,"byteLength":36},{"buffer":0,"byteOffset":11144,"byteLength":108},{"buffer":0,"byteOffset":11252,"byteLength":4},{"buffer":0,"byteOffset":11256,"byteLength":16},{"buffer":0,"byteOffset":11272,"byteLength":4},{"buffer":0,"byteOffset":11276,"byteLength":12},{"buffer":0,"byteOffset":11288,"byteLength":40},{"buffer":0,"byteOffset":11328,"byteLength":120},{"buffer":0,"byteOffset":11448,"byteLength":40},{"buffer":0,"byteOffset":11488,"byteLength":120},{"buffer":0,"byteOffset":11608,"byteLength":40},{"buffer":0,"byteOffset":11648,"byteLength":120},{"buffer":0,"byteOffset":11768,"byteLength":40},{"buffer":0,"byteOffset":11808,"byteLength":120},{"buffer":0,"byteOffset":11928,"byteLength":4},{"buffer":0,"byteOffset":11932,"byteLength":16},{"buffer":0,"byteOffset":11948,"byteLength":4},{"buffer":0,"byteOffset":11952,"byteLength":12},{"buffer":0,"byteOffset":11964,"byteLength":40},{"buffer":0,"byteOffset":12004,"byteLength":120},{"buffer":0,"byteOffset":12124,"byteLength":40},{"buffer":0,"byteOffset":12164,"byteLength":120},{"buffer":0,"byteOffset":12284,"byteLength":40},{"buffer":0,"byteOffset":12324,"byteLength":120},{"buffer":0,"byteOffset":12444,"byteLength":40},{"buffer":0,"byteOffset":12484,"byteLength":120}],"buffers":[{"byteLength":12604,"uri":"data:application/octet-stream;base64,"}],"accessors":[{"bufferView":0,"componentType":5126,"count":72,"max":[0.1875,0.6875,0.0625],"min":[-0.0625,-0.6875,-0.0625],"type":"VEC3"},{"bufferView":1,"componentType":5126,"count":72,"max":[1,1,1],"min":[-1,-1,-1],"type":"VEC3"},{"bufferView":2,"componentType":5126,"count":72,"max":[0.4375,0.40625],"min":[0,0],"type":"VEC2"},{"bufferView":3,"componentType":5123,"count":108,"max":[71],"min":[0],"type":"SCALAR"},{"bufferView":4,"componentType":5126,"count":24,"max":[0.0625,0.5625,0.0625],"min":[-0.0625,-0.0625,-0.0625],"type":"VEC3"},{"bufferView":5,"componentType":5126,"count":24,"max":[1,1,1],"min":[-0.9964598417282104,-0.6427876353263855,-1],"type":"VEC3"},{"bufferView":6,"componentType":5126,"count":24,"max":[0.4375,0.53125],"min":[0.046875,0.140625],"type":"VEC2"},{"bufferView":7,"componentType":5123,"count":36,"max":[23],"min":[0],"type":"SCALAR"},{"bufferView":8,"componentType":5126,"count":24,"max":[0.0625,0.625,0.0625],"min":[-0.0625,-0.0625,-0.0625],"type":"VEC3"},{"bufferView":9,"componentType":5126,"count":24,"max":[0.9988420009613037,1,1],"min":[-1,-0.7660444378852844,-1],"type":"VEC3"},{"bufferView":10,"componentType":5126,"count":24,"max":[0.4375,0.53125],"min":[0,0.140625],"type":"VEC2"},{"bufferView":11,"componentType":5123,"count":36,"max":[23],"min":[0],"type":"SCALAR"},{"bufferView":12,"componentType":5126,"count":24,"max":[0.21875,0.5,0.09375],"min":[0.03125,0,-0.09375],"type":"VEC3"},{"bufferView":13,"componentType":5126,"count":24,"max":[1,1,1],"min":[-1,-1,-1],"type":"VEC3"},{"bufferView":14,"componentType":5126,"count":24,"max":[0.421875,0.40625],"min":[0.25,0],"type":"VEC2"},{"bufferView":15,"componentType":5123,"count":36,"max":[23],"min":[0],"type":"SCALAR"},{"bufferView":16,"componentType":5126,"count":24,"max":[0.6875,0.3125,0.0625],"min":[-0.75,0.1875,-0.0625],"type":"VEC3"},{"bufferView":17,"componentType":5126,"count":24,"max":[1,1,1],"min":[-1,-1,-1],"type":"VEC3"},{"bufferView":18,"componentType":5126,"count":24,"max":[0.8125,0.8125],"min":[0,0],"type":"VEC2"},{"bufferView":19,"componentType":5123,"count":36,"max":[23],"min":[0],"type":"SCALAR"},{"bufferView":20,"componentType":5126,"count":56,"max":[0.1875,0.1875,0.078125],"min":[-0.1875,-0.1875,-0.078125],"type":"VEC3"},{"bufferView":21,"componentType":5126,"count":56,"max":[1,1,0.9701424837112427],"min":[-1,-1,-0.9701424837112427],"type":"VEC3"},{"bufferView":22,"componentType":5126,"count":56,"max":[0.9375,0.8125],"min":[0.011475895531475544,0],"type":"VEC2"},{"bufferView":23,"componentType":5123,"count":84,"max":[55],"min":[0],"type":"SCALAR"},{"bufferView":24,"componentType":5126,"count":56,"max":[0.1875,0.14330582320690155,0.078125],"min":[-0.14330582320690155,-0.1875,-0.078125],"type":"VEC3"},{"bufferView":25,"componentType":5126,"count":56,"max":[1,0.9555912613868713,0.9759604930877686],"min":[-0.9555912613868713,-1,-0.9848037958145142],"type":"VEC3"},{"bufferView":26,"componentType":5126,"count":56,"max":[0.8601862788200378,0.8125],"min":[0.0078125,0.0625],"type":"VEC2"},{"bufferView":27,"componentType":5123,"count":84,"max":[55],"min":[0],"type":"SCALAR"},{"bufferView":28,"componentType":5126,"count":24,"max":[0.03125,1,0],"min":[-0.03125,-1.125,0],"type":"VEC3"},{"bufferView":29,"componentType":5126,"count":24,"max":[1,0,1],"min":[0,0,-1],"type":"VEC3"},{"bufferView":30,"componentType":5126,"count":24,"max":[0.046875,0.53125],"min":[0,0],"type":"VEC2"},{"bufferView":31,"componentType":5123,"count":36,"max":[23],"min":[0],"type":"SCALAR"},{"bufferView":32,"componentType":5126,"count":1,"max":[0],"min":[0],"type":"SCALAR"},{"bufferView":33,"componentType":5126,"count":1,"max":[0,0,0,1],"min":[0,0,0,1],"type":"VEC4"},{"bufferView":34,"componentType":5126,"count":1,"max":[0],"min":[0],"type":"SCALAR"},{"bufferView":35,"componentType":5126,"count":1,"max":[0.125,0,0],"min":[0.125,0,0],"type":"VEC3"},{"bufferView":36,"componentType":5126,"count":9,"max":[0.5],"min":[0],"type":"SCALAR"},{"bufferView":37,"componentType":5126,"count":9,"max":[1.2999999523162842,1,1],"min":[1,0.800000011920929,1],"type":"VEC3"},{"bufferView":38,"componentType":5126,"count":9,"max":[0.5],"min":[0],"type":"SCALAR"},{"bufferView":39,"componentType":5126,"count":9,"max":[0.5625,0,-0.125],"min":[0.375,0,-0.125],"type":"VEC3"},{"bufferView":40,"componentType":5126,"count":9,"max":[0.5],"min":[0],"type":"SCALAR"},{"bufferView":41,"componentType":5126,"count":9,"max":[-0.40625,0,0],"min":[-0.5625,0,0],"type":"VEC3"},{"bufferView":42,"componentType":5126,"count":9,"max":[0.5],"min":[0],"type":"SCALAR"},{"bufferView":43,"componentType":5126,"count":9,"max":[1,1,1],"min":[1,0.800000011920929,1],"type":"VEC3"},{"bufferView":44,"componentType":5126,"count":1,"max":[0],"min":[0],"type":"SCALAR"},{"bufferView":45,"componentType":5126,"count":1,"max":[0,0,0,1],"min":[0,0,0,1],"type":"VEC4"},{"bufferView":46,"componentType":5126,"count":1,"max":[0],"min":[0],"type":"SCALAR"},{"bufferView":47,"componentType":5126,"count":1,"max":[0.125,0,0],"min":[0.125,0,0],"type":"VEC3"},{"bufferView":48,"componentType":5126,"count":10,"max":[0.5],"min":[0],"type":"SCALAR"},{"bufferView":49,"componentType":5126,"count":10,"max":[1.600000023841858,0.8999999761581421,1],"min":[1.2000000476837158,0.699999988079071,1],"type":"VEC3"},{"bufferView":50,"componentType":5126,"count":10,"max":[0.5],"min":[0],"type":"SCALAR"},{"bufferView":51,"componentType":5126,"count":10,"max":[0.4375,0,-0.125],"min":[0.24951171875,0,-0.125],"type":"VEC3"},{"bufferView":52,"componentType":5126,"count":10,"max":[0.5],"min":[0],"type":"SCALAR"},{"bufferView":53,"componentType":5126,"count":10,"max":[-0.53125,0,0],"min":[-0.71923828125,0,0],"type":"VEC3"},{"bufferView":54,"componentType":5126,"count":10,"max":[0.5],"min":[0],"type":"SCALAR"},{"bufferView":55,"componentType":5126,"count":10,"max":[1,0.8999999761581421,1],"min":[1,0.699999988079071,1],"type":"VEC3"},{"bufferView":56,"componentType":5126,"count":1,"max":[0],"min":[0],"type":"SCALAR"},{"bufferView":57,"componentType":5126,"count":1,"max":[0,0,0,1],"min":[0,0,0,1],"type":"VEC4"},{"bufferView":58,"componentType":5126,"count":1,"max":[0],"min":[0],"type":"SCALAR"},{"bufferView":59,"componentType":5126,"count":1,"max":[0.125,0,0],"min":[0.125,0,0],"type":"VEC3"},{"bufferView":60,"componentType":5126,"count":10,"max":[0.5],"min":[0],"type":"SCALAR"},{"bufferView":61,"componentType":5126,"count":10,"max":[1.7999999523162842,0.800000011920929,1],"min":[1.399999976158142,0.6000000238418579,1],"type":"VEC3"},{"bufferView":62,"componentType":5126,"count":10,"max":[0.5],"min":[0],"type":"SCALAR"},{"bufferView":63,"componentType":5126,"count":10,"max":[0.3125,0,-0.125],"min":[-0.00927734375,0,-0.125],"type":"VEC3"},{"bufferView":64,"componentType":5126,"count":10,"max":[0.5],"min":[0],"type":"SCALAR"},{"bufferView":65,"componentType":5126,"count":10,"max":[-0.65625,0,0],"min":[-0.84423828125,0,0],"type":"VEC3"},{"bufferView":66,"componentType":5126,"count":10,"max":[0.5],"min":[0],"type":"SCALAR"},{"bufferView":67,"componentType":5126,"count":10,"max":[1,0.800000011920929,1],"min":[1,0.6000000238418579,1],"type":"VEC3"}],"materials":[{"pbrMetallicRoughness":{"metallicFactor":0,"roughnessFactor":1,"baseColorTexture":{"index":0}},"alphaMode":"MASK","alphaCutoff":0.05,"doubleSided":true},{"pbrMetallicRoughness":{"metallicFactor":0,"roughnessFactor":1,"baseColorTexture":{"index":1}},"alphaMode":"MASK","alphaCutoff":0.05,"doubleSided":true},{"pbrMetallicRoughness":{"metallicFactor":0,"roughnessFactor":1,"baseColorTexture":{"index":2}},"alphaMode":"MASK","alphaCutoff":0.05,"doubleSided":true}],"textures":[{"sampler":0,"source":0,"name":"limb"},{"sampler":1,"source":1,"name":"arrow"},{"sampler":2,"source":2,"name":"string"}],"samplers":[{"magFilter":9728,"minFilter":9728,"wrapS":33071,"wrapT":33071},{"magFilter":9728,"minFilter":9728,"wrapS":33071,"wrapT":33071},{"magFilter":9728,"minFilter":9728,"wrapS":33071,"wrapT":33071}],"images":[{"mimeType":"image/png","uri":"data:image/png;base64,"},{"mimeType":"image/png","uri":"data:image/png;base64,"},{"mimeType":"image/png","uri":"data:image/png;base64,"}],"meshes":[{"primitives":[{"mode":4,"attributes":{"POSITION":0,"NORMAL":1,"TEXCOORD_0":2},"indices":3,"material":0}]},{"primitives":[{"mode":4,"attributes":{"POSITION":4,"NORMAL":5,"TEXCOORD_0":6},"indices":7,"material":0}]},{"primitives":[{"mode":4,"attributes":{"POSITION":8,"NORMAL":9,"TEXCOORD_0":10},"indices":11,"material":0}]},{"primitives":[{"mode":4,"attributes":{"POSITION":12,"NORMAL":13,"TEXCOORD_0":14},"indices":15,"material":0}]},{"primitives":[{"mode":4,"attributes":{"POSITION":16,"NORMAL":17,"TEXCOORD_0":18},"indices":19,"material":1}]},{"primitives":[{"mode":4,"attributes":{"POSITION":20,"NORMAL":21,"TEXCOORD_0":22},"indices":23,"material":1}]},{"primitives":[{"mode":4,"attributes":{"POSITION":24,"NORMAL":25,"TEXCOORD_0":26},"indices":27,"material":1}]},{"primitives":[{"mode":4,"attributes":{"POSITION":28,"NORMAL":29,"TEXCOORD_0":30},"indices":31,"material":2}]}],"animations":[{"name":"DrawBack","samplers":[{"input":32,"output":33,"interpolation":"LINEAR"},{"input":34,"output":35,"interpolation":"LINEAR"},{"input":36,"output":37,"interpolation":"LINEAR"},{"input":38,"output":39,"interpolation":"LINEAR"},{"input":40,"output":41,"interpolation":"LINEAR"},{"input":42,"output":43,"interpolation":"LINEAR"}],"channels":[{"sampler":0,"target":{"node":4,"path":"rotation"}},{"sampler":1,"target":{"node":4,"path":"translation"}},{"sampler":2,"target":{"node":4,"path":"scale"}},{"sampler":3,"target":{"node":8,"path":"translation"}},{"sampler":4,"target":{"node":10,"path":"translation"}},{"sampler":5,"target":{"node":10,"path":"scale"}}]},{"name":"DrawBack2","samplers":[{"input":44,"output":45,"interpolation":"LINEAR"},{"input":46,"output":47,"interpolation":"LINEAR"},{"input":48,"output":49,"interpolation":"LINEAR"},{"input":50,"output":51,"interpolation":"LINEAR"},{"input":52,"output":53,"interpolation":"LINEAR"},{"input":54,"output":55,"interpolation":"LINEAR"}],"channels":[{"sampler":0,"target":{"node":4,"path":"rotation"}},{"sampler":1,"target":{"node":4,"path":"translation"}},{"sampler":2,"target":{"node":4,"path":"scale"}},{"sampler":3,"target":{"node":8,"path":"translation"}},{"sampler":4,"target":{"node":10,"path":"translation"}},{"sampler":5,"target":{"node":10,"path":"scale"}}]},{"name":"DrawBack3","samplers":[{"input":56,"output":57,"interpolation":"LINEAR"},{"input":58,"output":59,"interpolation":"LINEAR"},{"input":60,"output":61,"interpolation":"LINEAR"},{"input":62,"output":63,"interpolation":"LINEAR"},{"input":64,"output":65,"interpolation":"LINEAR"},{"input":66,"output":67,"interpolation":"LINEAR"}],"channels":[{"sampler":0,"target":{"node":4,"path":"rotation"}},{"sampler":1,"target":{"node":4,"path":"translation"}},{"sampler":2,"target":{"node":4,"path":"scale"}},{"sampler":3,"target":{"node":8,"path":"translation"}},{"sampler":4,"target":{"node":10,"path":"translation"}},{"sampler":5,"target":{"node":10,"path":"scale"}}]}]}