{"asset":{"version":"2.0","generator":"Blockbench 5.0.4 glTF exporter"},"scenes":[{"nodes":[5],"name":"blockbench_export"}],"scene":0,"nodes":[{"translation":[-0.0625,0.5625,0],"name":"cuboid","mesh":0},{"translation":[0.4375,1.3125,0],"name":"cuboid","mesh":1},{"rotation":[0,0,-0.19509032201612825,0.9807852804032304],"translation":[-0.0625,1.5625,0],"name":"cuboid","mesh":2},{"rotation":[0,0,0.19509032201612825,0.9807852804032304],"translation":[-0.0625,1.5625,0],"name":"cuboid","mesh":3},{"rotation":[-0.6988771158414471,-0.10756747680485115,0.10756747909904901,0.6988771367896178],"translation":[-0.0625,1.5625,-0.140625],"name":"plane","mesh":4},{"name":"Scythe","children":[0,1,2,3,4]}],"bufferViews":[{"buffer":0,"byteOffset":0,"byteLength":672,"target":34962,"byteStride":12},{"buffer":0,"byteOffset":672,"byteLength":672,"target":34962,"byteStride":12},{"buffer":0,"byteOffset":1344,"byteLength":448,"target":34962,"byteStride":8},{"buffer":0,"byteOffset":1792,"byteLength":168,"target":34963},{"buffer":0,"byteOffset":1960,"byteLength":984,"target":34962,"byteStride":12},{"buffer":0,"byteOffset":2944,"byteLength":984,"target":34962,"byteStride":12},{"buffer":0,"byteOffset":3928,"byteLength":656,"target":34962,"byteStride":8},{"buffer":0,"byteOffset":4584,"byteLength":240,"target":34963},{"buffer":0,"byteOffset":4824,"byteLength":288,"target":34962,"byteStride":12},{"buffer":0,"byteOffset":5112,"byteLength":288,"target":34962,"byteStride":12},{"buffer":0,"byteOffset":5400,"byteLength":192,"target":34962,"byteStride":8},{"buffer":0,"byteOffset":5592,"byteLength":72,"target":34963},{"buffer":0,"byteOffset":5664,"byteLength":288,"target":34962,"byteStride":12},{"buffer":0,"byteOffset":5952,"byteLength":288,"target":34962,"byteStride":12},{"buffer":0,"byteOffset":6240,"byteLength":192,"target":34962,"byteStride":8},{"buffer":0,"byteOffset":6432,"byteLength":72,"target":34963},{"buffer":0,"byteOffset":6504,"byteLength":48,"target":34962,"byteStride":12},{"buffer":0,"byteOffset":6552,"byteLength":48,"target":34962,"byteStride":12},{"buffer":0,"byteOffset":6600,"byteLength":32,"target":34962,"byteStride":8},{"buffer":0,"byteOffset":6632,"byteLength":12,"target":34963}],"buffers":[{"byteLength":6644,"uri":"data:application/octet-stream;base64,"}],"accessors":[{"bufferView":0,"componentType":5126,"count":56,"max":[0.125,1.4375,0.0625],"min":[-0.0625,-0.875,-0.0625],"type":"VEC3"},{"bufferView":1,"componentType":5126,"count":56,"max":[1,1,1],"min":[-1,-1,-1],"type":"VEC3"},{"bufferView":2,"componentType":5126,"count":56,"max":[0.5,0.9394234418869019],"min":[0,0],"type":"VEC2"},{"bufferView":3,"componentType":5123,"count":84,"max":[55],"min":[0],"type":"SCALAR"},{"bufferView":4,"componentType":5126,"count":82,"max":[1.1206656694412231,0.5414456129074097,0.09375],"min":[-1,-0.882657527923584,-0.09375],"type":"VEC3"},{"bufferView":5,"componentType":5126,"count":82,"max":[0.9835466742515564,0.9990561008453369,1],"min":[-0.986393928527832,-0.9990561008453369,-1],"type":"VEC3"},{"bufferView":6,"componentType":5126,"count":82,"max":[0.633229672908783,0.8134171962738037],"min":[0.000085192579717841,0],"type":"VEC2"},{"bufferView":7,"componentType":5123,"count":120,"max":[81],"min":[0],"type":"SCALAR"},{"bufferView":8,"componentType":5126,"count":24,"max":[0.0625,0.3125,0.109375],"min":[-0.0625,-0.3125,-0.109375],"type":"VEC3"},{"bufferView":9,"componentType":5126,"count":24,"max":[1,1,1],"min":[-1,-1,-1],"type":"VEC3"},{"bufferView":10,"componentType":5126,"count":24,"max":[0.59375,0.71875],"min":[0,0],"type":"VEC2"},{"bufferView":11,"componentType":5123,"count":36,"max":[23],"min":[0],"type":"SCALAR"},{"bufferView":12,"componentType":5126,"count":24,"max":[0.0625,0.3125,0.125],"min":[-0.0625,-0.3125,-0.125],"type":"VEC3"},{"bufferView":13,"componentType":5126,"count":24,"max":[1,1,1],"min":[-1,-1,-1],"type":"VEC3"},{"bufferView":14,"componentType":5126,"count":24,"max":[0.625,0.734375],"min":[0,0],"type":"VEC2"},{"bufferView":15,"componentType":5123,"count":36,"max":[23],"min":[0],"type":"SCALAR"},{"bufferView":16,"componentType":5126,"count":4,"max":[0.375,0,0.375],"min":[-0.375,0,-0.375],"type":"VEC3"},{"bufferView":17,"componentType":5126,"count":4,"max":[0,1,0],"min":[0,1,0],"type":"VEC3"},{"bufferView":18,"componentType":5126,"count":4,"max":[0.421875,0.5625],"min":[0.171875,0.3125],"type":"VEC2"},{"bufferView":19,"componentType":5123,"count":6,"max":[3],"min":[0],"type":"SCALAR"}],"materials":[{"pbrMetallicRoughness":{"metallicFactor":0,"roughnessFactor":1,"baseColorTexture":{"index":0}},"alphaMode":"MASK","alphaCutoff":0.05,"doubleSided":true}],"textures":[{"sampler":0,"source":0,"name":"texture"}],"samplers":[{"magFilter":9728,"minFilter":9728,"wrapS":33071,"wrapT":33071}],"images":[{"mimeType":"image/png","uri":"data:image/png;base64,"}],"meshes":[{"primitives":[{"mode":4,"attributes":{"POSITION":0,"NORMAL":1,"TEXCOORD_0":2},"indices":3,"material":0}]},{"primitives":[{"mode":4,"attributes":{"POSITION":4,"NORMAL":5,"TEXCOORD_0":6},"indices":7,"material":0}]},{"primitives":[{"mode":4,"attributes":{"POSITION":8,"NORMAL":9,"TEXCOORD_0":10},"indices":11,"material":0}]},{"primitives":[{"mode":4,"attributes":{"POSITION":12,"NORMAL":13,"TEXCOORD_0":14},"indices":15,"material":0}]},{"primitives":[{"mode":4,"attributes":{"POSITION":16,"NORMAL":17,"TEXCOORD_0":18},"indices":19,"material":0}]}]}