{"asset":{"version":"2.0","generator":"Blockbench 5.0.4 glTF exporter"},"scenes":[{"nodes":[3],"name":"blockbench_export"}],"scene":0,"nodes":[{"translation":[0,1.125,0],"name":"Blade","mesh":0},{"translation":[0,-0.25,0],"name":"Handle","mesh":1},{"name":"Guard","mesh":2},{"name":"Sword","children":[0,1,2]}],"bufferViews":[{"buffer":0,"byteOffset":0,"byteLength":648,"target":34962,"byteStride":12},{"buffer":0,"byteOffset":648,"byteLength":648,"target":34962,"byteStride":12},{"buffer":0,"byteOffset":1296,"byteLength":432,"target":34962,"byteStride":8},{"buffer":0,"byteOffset":1728,"byteLength":156,"target":34963},{"buffer":0,"byteOffset":1884,"byteLength":288,"target":34962,"byteStride":12},{"buffer":0,"byteOffset":2172,"byteLength":288,"target":34962,"byteStride":12},{"buffer":0,"byteOffset":2460,"byteLength":192,"target":34962,"byteStride":8},{"buffer":0,"byteOffset":2652,"byteLength":72,"target":34963},{"buffer":0,"byteOffset":2724,"byteLength":864,"target":34962,"byteStride":12},{"buffer":0,"byteOffset":3588,"byteLength":864,"target":34962,"byteStride":12},{"buffer":0,"byteOffset":4452,"byteLength":576,"target":34962,"byteStride":8},{"buffer":0,"byteOffset":5028,"byteLength":216,"target":34963}],"buffers":[{"byteLength":5244,"uri":"data:application/octet-stream;base64,"}],"accessors":[{"bufferView":0,"componentType":5126,"count":54,"max":[0.125,0.625,0.015625],"min":[-0.140625,-0.8125,-0.015625],"type":"VEC3"},{"bufferView":1,"componentType":5126,"count":54,"max":[0.9578262567520142,0.7474093437194824,1],"min":[-1,-1,-1],"type":"VEC3"},{"bufferView":2,"componentType":5126,"count":54,"max":[0.53125,0.9688875079154968],"min":[0.011474999599158764,0],"type":"VEC2"},{"bufferView":3,"componentType":5123,"count":78,"max":[53],"min":[0],"type":"SCALAR"},{"bufferView":4,"componentType":5126,"count":24,"max":[0.0625,0.5,0.03125],"min":[-0.0625,0.125,-0.03125],"type":"VEC3"},{"bufferView":5,"componentType":5126,"count":24,"max":[1,1,1],"min":[-1,-1,-1],"type":"VEC3"},{"bufferView":6,"componentType":5126,"count":24,"max":[0.46875,0.4375],"min":[0.0625,0],"type":"VEC2"},{"bufferView":7,"componentType":5123,"count":36,"max":[23],"min":[0],"type":"SCALAR"},{"bufferView":8,"componentType":5126,"count":72,"max":[0.25,0.3125,0.0625],"min":[-0.25,0.1875,-0.0625],"type":"VEC3"},{"bufferView":9,"componentType":5126,"count":72,"max":[1,1,1],"min":[-1,-1,-1],"type":"VEC3"},{"bufferView":10,"componentType":5126,"count":72,"max":[0.5815062522888184,0.25],"min":[0.09375,0],"type":"VEC2"},{"bufferView":11,"componentType":5123,"count":108,"max":[71],"min":[0],"type":"SCALAR"}],"materials":[{"pbrMetallicRoughness":{"metallicFactor":0,"roughnessFactor":1,"baseColorTexture":{"index":0}},"alphaMode":"MASK","alphaCutoff":0.05,"doubleSided":true}],"textures":[{"sampler":0,"source":0,"name":"texture"}],"samplers":[{"magFilter":9728,"minFilter":9728,"wrapS":33071,"wrapT":33071}],"images":[{"mimeType":"image/png","uri":"data:image/png;base64,"}],"meshes":[{"primitives":[{"mode":4,"attributes":{"POSITION":0,"NORMAL":1,"TEXCOORD_0":2},"indices":3,"material":0}]},{"primitives":[{"mode":4,"attributes":{"POSITION":4,"NORMAL":5,"TEXCOORD_0":6},"indices":7,"material":0}]},{"primitives":[{"mode":4,"attributes":{"POSITION":8,"NORMAL":9,"TEXCOORD_0":10},"indices":11,"material":0}]}]}